<svg width="663" height="732" viewBox="0 0 663 732" fill="none" xmlns="http://www.w3.org/2000/svg">
<path d="M0 583.944C0 469.1 93.0997 376 207.944 376V376C289.713 376 356 442.287 356 524.056V524.056C356 638.9 262.9 732 148.056 732H0V583.944Z" fill="#27AE60"/>
<path d="M0 148.056C0 262.9 93.0997 356 207.944 356V356C289.713 356 356 289.713 356 207.944V207.944C356 93.0997 262.9 0 148.056 0H0V148.056Z" fill="#27AE60"/>
<path d="M663 198.29C663 285.391 592.391 356 505.29 356V356C443.274 356 393 305.726 393 243.71V243.71C393 156.609 463.609 86 550.71 86H663V198.29Z" fill="#27AE60"/>
<path d="M663 533.71C663 446.609 592.391 376 505.29 376V376C443.274 376 393 426.274 393 488.29V488.29C393 575.391 463.609 646 550.71 646H663V533.71Z" fill="#27AE60"/>
</svg>
